<svg id="Layer_1" data-name="Layer 1" xmlns="http://www.w3.org/2000/svg" viewBox="0 0 400 130"><defs><style>.cls-1{fill:#231f20;}.cls-2{fill:#818285;}.cls-3{fill:#1f3a6e;}.cls-4{fill:none;stroke:#fff;stroke-miterlimit:10;stroke-width:2.5px;}.cls-5{fill:#84bf43;}.cls-6{fill:#0ead4c;}.cls-7{fill:#ee3026;}</style></defs><title>Artboard 1</title><path class="cls-1" d="M164.92,40.08h2.16l12.69,32.14h-2.12l-4.05-10.31H158.22l-4.1,10.31H152ZM173,60.21,166.1,42H166l-7.16,18.18Z"/><path class="cls-1" d="M197.38,56.24a6.69,6.69,0,0,0-.79-2.7,6,6,0,0,0-1.69-1.93,7.65,7.65,0,0,0-2.41-1.17,10.35,10.35,0,0,0-2.95-.41,8.09,8.09,0,0,0-3.83.88,8.45,8.45,0,0,0-2.79,2.34,10.62,10.62,0,0,0-1.71,3.33,12.81,12.81,0,0,0-.59,3.85,16.4,16.4,0,0,0,.54,4.32,9.8,9.8,0,0,0,1.67,3.44,7.73,7.73,0,0,0,2.79,2.27,8.86,8.86,0,0,0,3.92.81,8,8,0,0,0,5.42-2A7.7,7.7,0,0,0,196.7,67a9.26,9.26,0,0,0,.9-2.9h1.71a10.82,10.82,0,0,1-1.12,3.69A9,9,0,0,1,196,70.49a9.37,9.37,0,0,1-3,1.69,11.51,11.51,0,0,1-8.35-.43A9.24,9.24,0,0,1,181.42,69a11.54,11.54,0,0,1-1.89-3.94,17.63,17.63,0,0,1-.61-4.66,14.82,14.82,0,0,1,.7-4.59,11.22,11.22,0,0,1,2-3.78A9.73,9.73,0,0,1,185,49.49a10.44,10.44,0,0,1,4.55-.95,12.74,12.74,0,0,1,3.53.47A9.13,9.13,0,0,1,196,50.44a7.4,7.4,0,0,1,2.09,2.41,8.58,8.58,0,0,1,1,3.4Z"/><path class="cls-1" d="M217.54,67.63h-.09a7.11,7.11,0,0,1-1.17,2,8.32,8.32,0,0,1-1.87,1.64,9.29,9.29,0,0,1-2.5,1.13,11,11,0,0,1-3.06.4,9,9,0,0,1-5.72-1.6,5.89,5.89,0,0,1-2-4.93A5.78,5.78,0,0,1,204,60.9a8.78,8.78,0,0,1,2.75-1.06,26.89,26.89,0,0,1,2.9-.45l2.66-.22a15.72,15.72,0,0,0,2.9-.43,3.7,3.7,0,0,0,1.6-.81,2.29,2.29,0,0,0,.67-1.33,12.65,12.65,0,0,0,.14-2,4.28,4.28,0,0,0-.36-1.76,3.94,3.94,0,0,0-1.12-1.44,5.58,5.58,0,0,0-2-1,10.62,10.62,0,0,0-3-.36,7.79,7.79,0,0,0-5,1.53A6.06,6.06,0,0,0,204,56.2h-1.71a7.57,7.57,0,0,1,2.45-5.74,9.76,9.76,0,0,1,6.46-1.91q4.19,0,6.1,1.64a5.4,5.4,0,0,1,1.91,4.3V67.95q0,.5,0,1a3.31,3.31,0,0,0,.16.9,1.34,1.34,0,0,0,.45.65,1.42,1.42,0,0,0,.9.25A8.26,8.26,0,0,0,222,70.6V72a5.4,5.4,0,0,1-1.4.18A4.12,4.12,0,0,1,219,72a2.16,2.16,0,0,1-.92-.72,2.64,2.64,0,0,1-.43-1.06,7.3,7.3,0,0,1-.11-1.33Zm0-8.55a3.24,3.24,0,0,1-1.91,1,23.79,23.79,0,0,1-2.86.41l-2.88.27c-.84.09-1.68.22-2.52.38a7.36,7.36,0,0,0-2.27.83,4.66,4.66,0,0,0-1.64,1.6,4.92,4.92,0,0,0-.63,2.63,4.48,4.48,0,0,0,1.62,3.8,7.17,7.17,0,0,0,4.46,1.24,8.77,8.77,0,0,0,4.64-1.06,8.21,8.21,0,0,0,2.61-2.43,7.47,7.47,0,0,0,1.15-2.66,11.43,11.43,0,0,0,.25-1.73Z"/><path class="cls-1" d="M241.45,67.27h-.09a10.5,10.5,0,0,1-3.6,4.12,10.76,10.76,0,0,1-9.77.38,8.87,8.87,0,0,1-3.11-2.66,11.46,11.46,0,0,1-1.8-3.85,18.31,18.31,0,0,1,0-9.36A10.89,10.89,0,0,1,225,52.06a9.17,9.17,0,0,1,3.22-2.57,10.24,10.24,0,0,1,4.55-.95,10,10,0,0,1,2.75.38A9.6,9.6,0,0,1,238,50a7.92,7.92,0,0,1,3.31,4.23h.09V40.08h1.71V72.22h-1.71Zm-8.6,4a7.63,7.63,0,0,0,3.8-.9A8.12,8.12,0,0,0,239.31,68a10.55,10.55,0,0,0,1.57-3.4,14.88,14.88,0,0,0,.52-3.89,15.06,15.06,0,0,0-.52-3.94,11.14,11.14,0,0,0-1.55-3.42,7.67,7.67,0,0,0-2.68-2.41,7.89,7.89,0,0,0-3.85-.9,8.12,8.12,0,0,0-3.92.88,7.81,7.81,0,0,0-2.68,2.36,9.85,9.85,0,0,0-1.53,3.42,16.79,16.79,0,0,0-.47,4,15,15,0,0,0,.52,3.94A10.54,10.54,0,0,0,226.3,68,7.8,7.8,0,0,0,229,70.4a8,8,0,0,0,3.87.88"/><path class="cls-1" d="M247.43,60.88v.27A13.64,13.64,0,0,0,248,65a9.88,9.88,0,0,0,1.6,3.24,7.6,7.6,0,0,0,2.66,2.21,8.15,8.15,0,0,0,3.72.81,7.94,7.94,0,0,0,5.51-1.82,9.55,9.55,0,0,0,2.8-5.06H266a10.36,10.36,0,0,1-3.31,6.21,10,10,0,0,1-6.73,2.16,10.21,10.21,0,0,1-4.48-.92,9.1,9.1,0,0,1-3.2-2.52,10.69,10.69,0,0,1-1.91-3.78,16.86,16.86,0,0,1-.63-4.7,16.46,16.46,0,0,1,.65-4.66,11.7,11.7,0,0,1,2-3.92,9.69,9.69,0,0,1,3.26-2.7,9.92,9.92,0,0,1,4.61-1,9.79,9.79,0,0,1,4.3.9,9,9,0,0,1,3.13,2.45,10.91,10.91,0,0,1,1.91,3.6,14.38,14.38,0,0,1,.65,4.39c0,.15,0,.32,0,.52s0,.35,0,.47Zm17-1.49a13.86,13.86,0,0,0-.63-3.58,8.86,8.86,0,0,0-1.6-3,8,8,0,0,0-2.57-2,7.55,7.55,0,0,0-3.45-.77,8.09,8.09,0,0,0-3.65.79,8.26,8.26,0,0,0-2.66,2.07,9.23,9.23,0,0,0-1.67,3,14,14,0,0,0-.72,3.51Z"/><path class="cls-1" d="M268.41,49.09h1.71v4.73h.09a6.19,6.19,0,0,1,.94-2,7.31,7.31,0,0,1,1.64-1.69A7.8,7.8,0,0,1,275,49a7.71,7.71,0,0,1,2.5-.41,8.69,8.69,0,0,1,2.88.43,6.86,6.86,0,0,1,2.07,1.13,5.58,5.58,0,0,1,1.35,1.58,6,6,0,0,1,.68,1.78h.09a8.42,8.42,0,0,1,2.77-3.67,7.7,7.7,0,0,1,4.57-1.24,8.61,8.61,0,0,1,2.9.47,6.1,6.1,0,0,1,2.29,1.44,6.6,6.6,0,0,1,1.51,2.45,10.31,10.31,0,0,1,.54,3.51v15.8H297.4V56.38a7.41,7.41,0,0,0-.67-3.47,5.42,5.42,0,0,0-1.6-1.91,4.53,4.53,0,0,0-1.85-.81,9.11,9.11,0,0,0-1.42-.16,7.63,7.63,0,0,0-2.9.54,6.16,6.16,0,0,0-2.3,1.62,7.59,7.59,0,0,0-1.51,2.68,11.45,11.45,0,0,0-.54,3.67V72.22H282.9V56.38a7.66,7.66,0,0,0-.65-3.44A5.21,5.21,0,0,0,280.72,51a4.62,4.62,0,0,0-1.8-.81,8.1,8.1,0,0,0-1.46-.18,7.22,7.22,0,0,0-4.91,2,7.76,7.76,0,0,0-1.76,2.65,9.92,9.92,0,0,0-.68,3.83V72.22h-1.71Z"/><path class="cls-1" d="M317.74,67.63h-.09a7.11,7.11,0,0,1-1.17,2,8.32,8.32,0,0,1-1.87,1.64,9.29,9.29,0,0,1-2.5,1.13,11,11,0,0,1-3.06.4,9,9,0,0,1-5.72-1.6,5.89,5.89,0,0,1-2-4.93,5.78,5.78,0,0,1,2.86-5.33,8.78,8.78,0,0,1,2.75-1.06,26.89,26.89,0,0,1,2.9-.45l2.66-.22a15.72,15.72,0,0,0,2.9-.43,3.7,3.7,0,0,0,1.6-.81,2.29,2.29,0,0,0,.67-1.33,12.65,12.65,0,0,0,.14-2,4.28,4.28,0,0,0-.36-1.76,3.94,3.94,0,0,0-1.12-1.44,5.58,5.58,0,0,0-2-1,10.62,10.62,0,0,0-3-.36,7.8,7.8,0,0,0-5,1.53,6.06,6.06,0,0,0-2.09,4.64h-1.71A7.57,7.57,0,0,1,305,50.46a9.76,9.76,0,0,1,6.46-1.91q4.19,0,6.1,1.64a5.4,5.4,0,0,1,1.91,4.3V67.95q0,.5,0,1a3.31,3.31,0,0,0,.16.9,1.34,1.34,0,0,0,.45.65,1.42,1.42,0,0,0,.9.25,8.26,8.26,0,0,0,1.26-.14V72a5.4,5.4,0,0,1-1.4.18,4.12,4.12,0,0,1-1.64-.27,2.16,2.16,0,0,1-.92-.72,2.64,2.64,0,0,1-.43-1.06,7.3,7.3,0,0,1-.11-1.33Zm0-8.55a3.24,3.24,0,0,1-1.91,1,23.81,23.81,0,0,1-2.86.41l-2.88.27c-.84.09-1.68.22-2.52.38a7.37,7.37,0,0,0-2.27.83,4.66,4.66,0,0,0-1.64,1.6,4.92,4.92,0,0,0-.63,2.63,4.48,4.48,0,0,0,1.62,3.8,7.17,7.17,0,0,0,4.46,1.24,8.77,8.77,0,0,0,4.64-1.06,8.2,8.2,0,0,0,2.61-2.43,7.47,7.47,0,0,0,1.15-2.66,11.43,11.43,0,0,0,.25-1.73Z"/><path class="cls-1" d="M323.1,49.09h1.71v5h.09a7.42,7.42,0,0,1,1.28-2.32,8.52,8.52,0,0,1,4.35-2.81,9.94,9.94,0,0,1,2.65-.36,10.5,10.5,0,0,1,3.44.5,6.75,6.75,0,0,1,2.32,1.3,6.34,6.34,0,0,1,1.42,1.82,8.49,8.49,0,0,1,.74,2,12,12,0,0,1,.27,2q0,1,0,1.69V72.22h-1.71V57.59q0-.85-.14-2.16a6.6,6.6,0,0,0-.79-2.5,5.74,5.74,0,0,0-2-2,6.74,6.74,0,0,0-3.67-.86,8.15,8.15,0,0,0-3.51.72,7.59,7.59,0,0,0-2.61,2,8.82,8.82,0,0,0-1.64,3.06,12.86,12.86,0,0,0-.56,3.89V72.22H323.1Z"/><path class="cls-1" d="M341.87,49.09h2l8.6,21.11,7.92-21.11h1.94l-9.9,25.61a6.07,6.07,0,0,1-1.9,2.85,4.63,4.63,0,0,1-2.17.91,27,27,0,0,1-3.26.16V77.13a11,11,0,0,0,2.88-.29,4.47,4.47,0,0,0,1.94-1.19,5.8,5.8,0,0,0,1-1.82c.36-.89,0-.2.59-1.73Z"/><polygon class="cls-2" points="150.26 81.5 157.38 81.5 157.38 82.29 154.28 82.29 154.28 91.29 153.36 91.29 153.36 82.29 150.26 82.29 150.26 81.5"/><path class="cls-2" d="M158.58,91.29V81.51h.81v3.72a5.16,5.16,0,0,1,1-.84,2.32,2.32,0,0,1,1.26-.33,3.2,3.2,0,0,1,1.21.22,2.06,2.06,0,0,1,.94.78,1.75,1.75,0,0,1,.31.78,7,7,0,0,1,0,.84v4.61h-.82V86.7a2.1,2.1,0,0,0-.42-1.43,1.79,1.79,0,0,0-1.4-.48,2,2,0,0,0-.69.12,2.22,2.22,0,0,0-.56.31,2,2,0,0,0-.43.43,2,2,0,0,0-.27.52,2.63,2.63,0,0,0-.15.65c0,.21,0,.43,0,.68v3.79Z"/><path class="cls-2" d="M166.63,88a3.81,3.81,0,0,0,.15,1.08,2.61,2.61,0,0,0,.44.88,2.15,2.15,0,0,0,.74.6,2.29,2.29,0,0,0,1,.22,2.25,2.25,0,0,0,1.37-.42,2,2,0,0,0,.76-1.2H172a4.43,4.43,0,0,1-.39.93,2.87,2.87,0,0,1-.61.75,2.65,2.65,0,0,1-.87.5,3.52,3.52,0,0,1-1.17.18,3.41,3.41,0,0,1-1.45-.29,2.75,2.75,0,0,1-1-.78,3.31,3.31,0,0,1-.58-1.17,5.28,5.28,0,0,1-.19-1.45,4.6,4.6,0,0,1,.22-1.45,3.71,3.71,0,0,1,.64-1.19,3,3,0,0,1,1-.8,3,3,0,0,1,1.36-.29,2.81,2.81,0,0,1,2.28,1,4.4,4.4,0,0,1,.82,2.9Zm4.59-.68a3.21,3.21,0,0,0-.14-1,2.27,2.27,0,0,0-.42-.79A2,2,0,0,0,170,85a2.26,2.26,0,0,0-1-.2,2.14,2.14,0,0,0-1,.2,2.2,2.2,0,0,0-.71.54,2.73,2.73,0,0,0-.47.79,3.68,3.68,0,0,0-.23,1Z"/><path class="cls-2" d="M176.69,91.29l3.85-9.78h1l3.75,9.78h-1l-1.13-3.07H178.8l-1.15,3.07Zm2.42-3.86h3.83L181,82.29Z"/><path class="cls-2" d="M191.51,86.46a2.37,2.37,0,0,0-.75-1.23,2,2,0,0,0-1.35-.44,2.12,2.12,0,0,0-1.07.26,2.17,2.17,0,0,0-.73.69,3.08,3.08,0,0,0-.42,1,4.36,4.36,0,0,0-.14,1.08,4.59,4.59,0,0,0,.13,1.09,2.89,2.89,0,0,0,.41,1,2.12,2.12,0,0,0,.73.67,2.19,2.19,0,0,0,1.09.25,2.08,2.08,0,0,0,1.46-.5,2.34,2.34,0,0,0,.7-1.39h.87a4.1,4.1,0,0,1-.35,1.07,2.8,2.8,0,0,1-.61.83,2.6,2.6,0,0,1-.89.54,3.8,3.8,0,0,1-2.64-.09,2.75,2.75,0,0,1-1-.78,3.27,3.27,0,0,1-.58-1.18,5.37,5.37,0,0,1-.19-1.45,4.69,4.69,0,0,1,.21-1.41,3.68,3.68,0,0,1,.62-1.19,3,3,0,0,1,1-.82,3,3,0,0,1,1.39-.31,3.14,3.14,0,0,1,2,.58,2.71,2.71,0,0,1,.95,1.82Z"/><path class="cls-2" d="M197.32,87.18l.55-.08a2.05,2.05,0,0,0,.52-.15.44.44,0,0,0,.25-.32,2,2,0,0,0,0-.41,1.39,1.39,0,0,0-.4-1,1.87,1.87,0,0,0-1.35-.4,3.72,3.72,0,0,0-.77.07,1.7,1.7,0,0,0-.62.26,1.42,1.42,0,0,0-.43.49,2.08,2.08,0,0,0-.23.77h-.83a2.53,2.53,0,0,1,.29-1.07,2.17,2.17,0,0,1,.63-.72,2.63,2.63,0,0,1,.9-.41,4.39,4.39,0,0,1,1.08-.13,4.17,4.17,0,0,1,1,.12,2.31,2.31,0,0,1,.82.37,1.69,1.69,0,0,1,.54.67,2.43,2.43,0,0,1,.2,1v3.83c0,.32.06.52.17.6s.34.07.69-.06v.64l-.28.08a1.28,1.28,0,0,1-.36.05,1.64,1.64,0,0,1-.37,0,.64.64,0,0,1-.33-.13.78.78,0,0,1-.2-.24,1,1,0,0,1-.1-.31,2.15,2.15,0,0,1,0-.36,3.56,3.56,0,0,1-1.18.87,3.48,3.48,0,0,1-1.44.3,3.24,3.24,0,0,1-.89-.12,2.16,2.16,0,0,1-.75-.38,1.86,1.86,0,0,1-.52-.63,1.93,1.93,0,0,1-.19-.89q0-1.79,2.46-2.12Zm1.37.41a4,4,0,0,1-1,.29l-1.06.11a3,3,0,0,0-1.46.42,1.21,1.21,0,0,0-.52,1.07,1.17,1.17,0,0,0,.13.56,1.19,1.19,0,0,0,.34.39,1.42,1.42,0,0,0,.49.23,2.12,2.12,0,0,0,.56.07,3.72,3.72,0,0,0,1-.12,2.57,2.57,0,0,0,.82-.37,1.9,1.9,0,0,0,.58-.64,1.84,1.84,0,0,0,.22-.92Z"/><path class="cls-2" d="M207.07,81.51h.81v9.78h-.81V90.05h0a2.21,2.21,0,0,1-.46.62,2.74,2.74,0,0,1-.61.44,3.25,3.25,0,0,1-.69.27,2.64,2.64,0,0,1-.69.1,3.36,3.36,0,0,1-1.45-.29,2.7,2.7,0,0,1-1-.78,3.19,3.19,0,0,1-.56-1.17,5.75,5.75,0,0,1-.18-1.45,5.21,5.21,0,0,1,.19-1.41,3.51,3.51,0,0,1,.58-1.19,2.85,2.85,0,0,1,1-.82,3,3,0,0,1,1.39-.31,3.26,3.26,0,0,1,1.43.33,2.53,2.53,0,0,1,1.08,1Zm0,6.24a3.91,3.91,0,0,0-.16-1.13,2.94,2.94,0,0,0-.47-.94,2.32,2.32,0,0,0-.75-.64,2.08,2.08,0,0,0-1-.24,2.26,2.26,0,0,0-1.1.25,2.17,2.17,0,0,0-.76.69,3,3,0,0,0-.43,1,4.59,4.59,0,0,0-.11,1.24,3.44,3.44,0,0,0,.18,1.17A2.49,2.49,0,0,0,203,90a2.19,2.19,0,0,0,.76.54,2.43,2.43,0,0,0,1,.18,2.19,2.19,0,0,0,1-.23,2.16,2.16,0,0,0,.75-.63,2.92,2.92,0,0,0,.46-1,4.34,4.34,0,0,0,.16-1.19"/><path class="cls-2" d="M210.44,88a3.81,3.81,0,0,0,.15,1.08,2.61,2.61,0,0,0,.44.88,2.15,2.15,0,0,0,.74.6,2.28,2.28,0,0,0,1,.22,2.25,2.25,0,0,0,1.37-.42,2,2,0,0,0,.76-1.2h.91a4.54,4.54,0,0,1-.39.93,2.91,2.91,0,0,1-.61.75,2.63,2.63,0,0,1-.87.5,3.52,3.52,0,0,1-1.17.18,3.41,3.41,0,0,1-1.45-.29,2.75,2.75,0,0,1-1-.78,3.31,3.31,0,0,1-.58-1.17,5.28,5.28,0,0,1-.19-1.45,4.6,4.6,0,0,1,.22-1.45,3.71,3.71,0,0,1,.64-1.19,3,3,0,0,1,1-.8,3,3,0,0,1,1.36-.29,2.8,2.8,0,0,1,2.28,1,4.39,4.39,0,0,1,.82,2.9Zm4.59-.68a3.24,3.24,0,0,0-.14-1,2.27,2.27,0,0,0-.42-.79,2,2,0,0,0-.7-.53,2.26,2.26,0,0,0-1-.2,2.14,2.14,0,0,0-1,.2,2.19,2.19,0,0,0-.71.54,2.73,2.73,0,0,0-.47.79,3.68,3.68,0,0,0-.23,1Z"/><path class="cls-2" d="M218.2,91.29h-.82v-7h.82v1.06h0a2.15,2.15,0,0,1,.9-.93,2.62,2.62,0,0,1,1.28-.32,2.76,2.76,0,0,1,.83.11,1.88,1.88,0,0,1,.58.29,1.7,1.7,0,0,1,.39.43,3,3,0,0,1,.26.53,2.37,2.37,0,0,1,.95-1,2.72,2.72,0,0,1,1.35-.33,2.37,2.37,0,0,1,1.15.24,1.73,1.73,0,0,1,.66.63,2.41,2.41,0,0,1,.31.89,7,7,0,0,1,.07,1v4.44h-.82V86.42a2,2,0,0,0-.32-1.2,1.39,1.39,0,0,0-1.19-.43,2,2,0,0,0-1.59.8,1.54,1.54,0,0,0-.22.41,3.46,3.46,0,0,0-.14.5,4.2,4.2,0,0,0-.07.52c0,.17,0,.33,0,.48v3.79h-.82V86.42a2,2,0,0,0-.32-1.2,1.39,1.39,0,0,0-1.19-.43,2,2,0,0,0-1.59.8,1.54,1.54,0,0,0-.22.41,3.34,3.34,0,0,0-.14.5,4.2,4.2,0,0,0-.07.52c0,.17,0,.33,0,.48Z"/><path class="cls-2" d="M228.76,93.19l.33.05.35,0a.76.76,0,0,0,.56-.22,1.81,1.81,0,0,0,.36-.52,4.26,4.26,0,0,0,.24-.64,2.92,2.92,0,0,1,.22-.56l-2.73-7.08H229l2.26,6,2.26-6h.88l-2.62,6.94q-.24.66-.47,1.2a5.44,5.44,0,0,1-.48.9,2,2,0,0,1-.56.57,1.31,1.31,0,0,1-.73.2l-.41,0-.36-.07Z"/><path class="cls-2" d="M242.18,91.48a3.66,3.66,0,0,1-1.27-.24,2.84,2.84,0,0,1-1-.69,3.33,3.33,0,0,1-.7-1.15,4.63,4.63,0,0,1-.26-1.62,5,5,0,0,1,.2-1.45,3.43,3.43,0,0,1,.61-1.18,2.88,2.88,0,0,1,1-.79,3.27,3.27,0,0,1,1.43-.29,3.31,3.31,0,0,1,1.44.29,2.93,2.93,0,0,1,1,.79,3.26,3.26,0,0,1,.6,1.18,5.21,5.21,0,0,1,.2,1.45,4.71,4.71,0,0,1-.23,1.52,3.43,3.43,0,0,1-.66,1.17,2.9,2.9,0,0,1-1,.75,3.3,3.3,0,0,1-1.34.27m2.39-3.71a4.84,4.84,0,0,0-.14-1.17,2.78,2.78,0,0,0-.42-.94,2,2,0,0,0-.73-.63,2.38,2.38,0,0,0-1.1-.23,2.23,2.23,0,0,0-1.09.25,2.13,2.13,0,0,0-.74.67,2.92,2.92,0,0,0-.42,1,4.51,4.51,0,0,0-.14,1.11,4.39,4.39,0,0,0,.16,1.2,2.81,2.81,0,0,0,.46.94,2,2,0,0,0,.75.61,2.34,2.34,0,0,0,1,.22,2.23,2.23,0,0,0,1.09-.25,2.12,2.12,0,0,0,.74-.67,3,3,0,0,0,.42-1,4.43,4.43,0,0,0,.14-1.1"/><path class="cls-2" d="M246.23,84.93v-.68h1V83.14a2.3,2.3,0,0,1,.34-1.33,1.31,1.31,0,0,1,1.15-.49h.35l.33,0v.75A2.05,2.05,0,0,0,249,82a.89.89,0,0,0-.49.12.68.68,0,0,0-.26.3,1.38,1.38,0,0,0-.1.43c0,.16,0,.32,0,.48v.87h1.36v.68h-1.36v6.36h-.82V84.93Z"/><path class="cls-2" d="M257.26,81.25a12.23,12.23,0,0,0-1.53,3,10.22,10.22,0,0,0-.55,3.34,9.65,9.65,0,0,0,.57,3.29,13.59,13.59,0,0,0,1.51,3h-.69q-.56-.77-1-1.5a10,10,0,0,1-.73-1.48,8.41,8.41,0,0,1-.44-1.58,10.17,10.17,0,0,1-.15-1.79,9.54,9.54,0,0,1,.15-1.76,8.84,8.84,0,0,1,.45-1.58,10.18,10.18,0,0,1,.72-1.49,15.1,15.1,0,0,1,1-1.46Z"/><path class="cls-2" d="M262.25,87.18l.55-.08a2,2,0,0,0,.52-.15.43.43,0,0,0,.25-.32,2,2,0,0,0,0-.41,1.39,1.39,0,0,0-.4-1,1.87,1.87,0,0,0-1.35-.4,3.74,3.74,0,0,0-.77.07,1.7,1.7,0,0,0-.62.26,1.43,1.43,0,0,0-.43.49,2.08,2.08,0,0,0-.22.77H259a2.53,2.53,0,0,1,.29-1.07,2.17,2.17,0,0,1,.63-.72,2.63,2.63,0,0,1,.9-.41,4.4,4.4,0,0,1,1.08-.13,4.16,4.16,0,0,1,1,.12,2.31,2.31,0,0,1,.82.37,1.69,1.69,0,0,1,.54.67,2.42,2.42,0,0,1,.2,1v3.83c0,.32.06.52.17.6s.34.07.69-.06v.64l-.28.08a1.28,1.28,0,0,1-.36.05,1.64,1.64,0,0,1-.37,0,.65.65,0,0,1-.33-.13.81.81,0,0,1-.2-.24,1,1,0,0,1-.1-.31,2.39,2.39,0,0,1,0-.36,3.53,3.53,0,0,1-1.18.87,3.48,3.48,0,0,1-1.44.3,3.25,3.25,0,0,1-.89-.12,2.14,2.14,0,0,1-.75-.38,1.88,1.88,0,0,1-.52-.63,1.93,1.93,0,0,1-.19-.89q0-1.79,2.46-2.12Zm1.37.41a4,4,0,0,1-1,.29l-1.06.11a3,3,0,0,0-1.46.42,1.21,1.21,0,0,0-.52,1.07,1.17,1.17,0,0,0,.13.56,1.19,1.19,0,0,0,.34.39,1.42,1.42,0,0,0,.49.23,2.12,2.12,0,0,0,.56.07,3.72,3.72,0,0,0,1-.12,2.58,2.58,0,0,0,.82-.37,1.9,1.9,0,0,0,.58-.64,1.85,1.85,0,0,0,.22-.92Z"/><rect class="cls-2" x="266.69" y="81.51" width="0.82" height="9.78"/><path class="cls-2" d="M270.29,91.29h-.82v-7h.82v1.06h0a2.15,2.15,0,0,1,.9-.93,2.62,2.62,0,0,1,1.28-.32,2.76,2.76,0,0,1,.83.11,1.88,1.88,0,0,1,.58.29,1.7,1.7,0,0,1,.39.43,3,3,0,0,1,.26.53,2.37,2.37,0,0,1,.95-1,2.72,2.72,0,0,1,1.35-.33,2.37,2.37,0,0,1,1.15.24,1.73,1.73,0,0,1,.66.63,2.41,2.41,0,0,1,.31.89,7,7,0,0,1,.07,1v4.44h-.82V86.42a2,2,0,0,0-.32-1.2,1.39,1.39,0,0,0-1.19-.43,2,2,0,0,0-1.59.8,1.54,1.54,0,0,0-.22.41,3.46,3.46,0,0,0-.14.5,4.2,4.2,0,0,0-.07.52c0,.17,0,.33,0,.48v3.79h-.82V86.42a2,2,0,0,0-.32-1.2,1.39,1.39,0,0,0-1.19-.43,2,2,0,0,0-1.59.8,1.54,1.54,0,0,0-.22.41,3.34,3.34,0,0,0-.14.5,4.2,4.2,0,0,0-.07.52c0,.17,0,.33,0,.48Z"/><path class="cls-2" d="M283.7,91.48a3.66,3.66,0,0,1-1.27-.24,2.84,2.84,0,0,1-1-.69,3.33,3.33,0,0,1-.7-1.15,4.63,4.63,0,0,1-.26-1.62,5,5,0,0,1,.2-1.45,3.43,3.43,0,0,1,.61-1.18,2.88,2.88,0,0,1,1-.79,3.27,3.27,0,0,1,1.43-.29,3.31,3.31,0,0,1,1.44.29,2.93,2.93,0,0,1,1,.79,3.26,3.26,0,0,1,.6,1.18,5.21,5.21,0,0,1,.2,1.45,4.71,4.71,0,0,1-.23,1.52,3.43,3.43,0,0,1-.66,1.17,2.9,2.9,0,0,1-1,.75,3.3,3.3,0,0,1-1.34.27m2.39-3.71A4.84,4.84,0,0,0,286,86.6a2.78,2.78,0,0,0-.42-.94,2,2,0,0,0-.73-.63,2.38,2.38,0,0,0-1.1-.23,2.23,2.23,0,0,0-1.09.25,2.13,2.13,0,0,0-.74.67,2.92,2.92,0,0,0-.42,1,4.51,4.51,0,0,0-.14,1.11,4.39,4.39,0,0,0,.16,1.2,2.81,2.81,0,0,0,.46.94,2,2,0,0,0,.75.61,2.34,2.34,0,0,0,1,.22,2.23,2.23,0,0,0,1.09-.25,2.12,2.12,0,0,0,.74-.67,3,3,0,0,0,.42-1,4.43,4.43,0,0,0,.14-1.1"/><path class="cls-2" d="M288.94,89.09a2.07,2.07,0,0,0,.69,1.28,2.33,2.33,0,0,0,1.42.37,2.44,2.44,0,0,0,.77-.11,1.55,1.55,0,0,0,.54-.29,1.25,1.25,0,0,0,.32-.42,1.13,1.13,0,0,0,.11-.49.9.9,0,0,0-.33-.77,2.53,2.53,0,0,0-.84-.4,10.9,10.9,0,0,0-1.09-.24,5.32,5.32,0,0,1-1.09-.31,2.18,2.18,0,0,1-.84-.58,1.58,1.58,0,0,1-.33-1.07,1.83,1.83,0,0,1,.64-1.45,2.7,2.7,0,0,1,1.83-.56,3.12,3.12,0,0,1,1.86.51,2.33,2.33,0,0,1,.86,1.7h-.83a1.53,1.53,0,0,0-.62-1.15,2.3,2.3,0,0,0-1.28-.33,1.83,1.83,0,0,0-1.18.33,1.08,1.08,0,0,0-.41.88.86.86,0,0,0,.33.73,2.7,2.7,0,0,0,.84.41q.5.16,1.09.28a5.32,5.32,0,0,1,1.09.35,2.4,2.4,0,0,1,.84.61,1.56,1.56,0,0,1,.33,1.06,1.79,1.79,0,0,1-.22.89,1.89,1.89,0,0,1-.6.64,2.78,2.78,0,0,1-.9.39,4.79,4.79,0,0,1-1.15.13,3.11,3.11,0,0,1-1.11-.18A2.34,2.34,0,0,1,288.32,90a2.72,2.72,0,0,1-.22-.94Z"/><path class="cls-2" d="M297.73,91.32l-.4.1a2,2,0,0,1-.54.07,1.29,1.29,0,0,1-.93-.31,1.49,1.49,0,0,1-.32-1.09V84.93h-1v-.68h1v-2h.82v2h1.32v.68h-1.32v4.82c0,.17,0,.32,0,.45a.73.73,0,0,0,.08.31.39.39,0,0,0,.21.18,1.18,1.18,0,0,0,.4.05l.33,0,.33-.07Z"/><path class="cls-2" d="M298.81,93.88a12.23,12.23,0,0,0,1.53-3,10.25,10.25,0,0,0,.55-3.34,9.65,9.65,0,0,0-.57-3.29,13.57,13.57,0,0,0-1.51-3h.69q.56.77,1,1.5a9.31,9.31,0,0,1,.72,1.48,9,9,0,0,1,.44,1.58,9.78,9.78,0,0,1,.15,1.79,9.61,9.61,0,0,1-.15,1.76,9,9,0,0,1-.45,1.58,9.79,9.79,0,0,1-.73,1.49q-.44.73-1,1.46Z"/><path class="cls-2" d="M306.56,91.29l3.85-9.78h1l3.75,9.78h-1l-1.13-3.07h-4.46l-1.15,3.07ZM309,87.43h3.83l-1.92-5.14Z"/><path class="cls-2" d="M317.21,91.29h-.82v-7h.82v1a5.18,5.18,0,0,1,1-.84,2.32,2.32,0,0,1,1.26-.33,3.2,3.2,0,0,1,1.21.22,2.06,2.06,0,0,1,.94.78,1.74,1.74,0,0,1,.3.78,7,7,0,0,1,0,.84v4.61h-.82V86.7a2.09,2.09,0,0,0-.42-1.43,1.79,1.79,0,0,0-1.4-.48,2,2,0,0,0-.69.12,2.22,2.22,0,0,0-.56.31,2,2,0,0,0-.43.43,2,2,0,0,0-.27.52,2.58,2.58,0,0,0-.15.65c0,.21,0,.43,0,.68Z"/><path class="cls-2" d="M323.9,93.19l.33.05.35,0a.76.76,0,0,0,.56-.22,1.81,1.81,0,0,0,.36-.52,4.26,4.26,0,0,0,.24-.64,3,3,0,0,1,.22-.56l-2.73-7.08h.91l2.26,6,2.26-6h.88l-2.62,6.94q-.24.66-.47,1.2a5.44,5.44,0,0,1-.48.9,2,2,0,0,1-.56.57,1.31,1.31,0,0,1-.73.2l-.41,0L323.9,94Z"/><path class="cls-2" d="M333.22,91.32l-.4.1a2,2,0,0,1-.54.07,1.29,1.29,0,0,1-.93-.31,1.49,1.49,0,0,1-.32-1.09V84.93h-1v-.68h1v-2h.82v2h1.32v.68h-1.32v4.82c0,.17,0,.32,0,.45a.73.73,0,0,0,.08.31.39.39,0,0,0,.21.18,1.18,1.18,0,0,0,.4.05l.33,0,.33-.07Z"/><path class="cls-2" d="M334.52,91.29V81.51h.82v3.72a5.18,5.18,0,0,1,1-.84,2.32,2.32,0,0,1,1.26-.33,3.19,3.19,0,0,1,1.21.22,2.06,2.06,0,0,1,.94.78,1.74,1.74,0,0,1,.31.78,7,7,0,0,1,0,.84v4.61h-.82V86.7a2.1,2.1,0,0,0-.42-1.43,1.79,1.79,0,0,0-1.4-.48,2,2,0,0,0-.69.12,2.23,2.23,0,0,0-.56.31,2,2,0,0,0-.7,1,2.58,2.58,0,0,0-.15.65c0,.21,0,.43,0,.68v3.79Z"/><path class="cls-2" d="M342.16,81.51h.9v1.21h-.9Zm0,2.74H343v7h-.82Z"/><path class="cls-2" d="M345.91,91.29h-.82v-7h.82v1a5.18,5.18,0,0,1,1-.84,2.32,2.32,0,0,1,1.26-.33,3.2,3.2,0,0,1,1.21.22,2.06,2.06,0,0,1,.94.78,1.74,1.74,0,0,1,.3.78,7,7,0,0,1,0,.84v4.61h-.82V86.7a2.09,2.09,0,0,0-.42-1.43,1.79,1.79,0,0,0-1.4-.48,2,2,0,0,0-.69.12,2.22,2.22,0,0,0-.56.31,2,2,0,0,0-.43.43,2,2,0,0,0-.27.52,2.58,2.58,0,0,0-.15.65c0,.21,0,.43,0,.68Z"/><path class="cls-2" d="M358.08,84.25h.82v6.36a6.26,6.26,0,0,1-.14,1.35,2.91,2.91,0,0,1-.51,1.13,2.55,2.55,0,0,1-1,.78,4,4,0,0,1-1.64.29,4,4,0,0,1-1.33-.2,2.89,2.89,0,0,1-.91-.5,2.16,2.16,0,0,1-.54-.66,1.64,1.64,0,0,1-.2-.67h.87a1.58,1.58,0,0,0,.3.64,1.47,1.47,0,0,0,.48.39,2.06,2.06,0,0,0,.62.2,4.5,4.5,0,0,0,.71.05,2.68,2.68,0,0,0,1.33-.29,2,2,0,0,0,.76-.75,2.86,2.86,0,0,0,.33-1,7.87,7.87,0,0,0,.06-1.2,2.53,2.53,0,0,1-1.08,1,3.25,3.25,0,0,1-1.43.33,3,3,0,0,1-1.39-.31,2.87,2.87,0,0,1-1-.82,3.49,3.49,0,0,1-.58-1.19,5.21,5.21,0,0,1-.19-1.41,5.8,5.8,0,0,1,.18-1.45,3.19,3.19,0,0,1,.56-1.17,2.7,2.7,0,0,1,1-.78,3.34,3.34,0,0,1,1.45-.29,2.67,2.67,0,0,1,.69.1,3.29,3.29,0,0,1,.69.27,2.62,2.62,0,0,1,.61.45,2.38,2.38,0,0,1,.46.61h0Zm0,3.55a4.34,4.34,0,0,0-.16-1.19,2.88,2.88,0,0,0-.46-1,2.14,2.14,0,0,0-.75-.63,2.19,2.19,0,0,0-1-.23,2.43,2.43,0,0,0-1,.18,2.2,2.2,0,0,0-.76.54,2.49,2.49,0,0,0-.51.86,3.47,3.47,0,0,0-.18,1.17,4.58,4.58,0,0,0,.11,1.24,3,3,0,0,0,.43,1,2.17,2.17,0,0,0,.76.69,2.27,2.27,0,0,0,1.1.25,2.08,2.08,0,0,0,1-.24,2.32,2.32,0,0,0,.75-.64,2.94,2.94,0,0,0,.47-.94,3.9,3.9,0,0,0,.16-1.13"/><polygon class="cls-3" points="82.03 76.51 82.03 67.13 69.71 74.25 57.38 67.13 41.13 76.51 69.71 93.01 90.16 81.2 82.03 76.51"/><polygon class="cls-4" points="82.03 76.51 82.03 67.13 69.71 74.25 57.38 67.13 41.13 76.51 69.71 93.01 90.16 81.2 82.03 76.51"/><path class="cls-4" d="M82,53v0Z"/><polygon class="cls-5" points="110.61 93.01 139.19 76.51 139.19 43.51 122.94 52.89 122.94 67.13 110.61 74.25 110.61 93.01"/><polygon class="cls-4" points="110.61 93.01 139.19 76.51 139.19 43.51 122.94 52.89 122.94 67.13 110.61 74.25 110.61 93.01"/><polygon class="cls-3" points="110.61 27.01 90.17 38.82 98.3 43.51 98.29 52.89 110.61 45.77 122.94 52.89 139.19 43.51 110.61 27.01"/><polygon class="cls-4" points="110.61 27.01 90.17 38.82 98.3 43.51 98.29 52.89 110.61 45.77 122.94 52.89 139.19 43.51 110.61 27.01"/><polygon class="cls-6" points="69.71 27.01 41.13 43.51 41.13 76.51 57.38 67.13 57.38 52.89 69.71 45.77 69.71 27.01"/><polygon class="cls-4" points="69.71 27.01 41.13 43.51 41.13 76.51 57.38 67.13 57.38 52.89 69.71 45.77 69.71 27.01"/><polygon class="cls-5" points="69.71 27.01 41.13 43.51 41.13 76.51 57.38 67.13 57.38 52.89 69.71 45.77 69.71 27.01"/><polygon class="cls-4" points="69.71 27.01 41.13 43.51 41.13 76.51 57.38 67.13 57.38 52.89 69.71 45.77 69.71 27.01"/><polygon class="cls-7" points="110.61 74.25 98.29 67.13 98.3 43.51 69.71 27.01 69.71 45.77 82.04 52.89 82.02 76.51 110.61 93.01 110.61 74.25"/><polygon class="cls-4" points="110.61 74.25 98.29 67.13 98.3 43.51 69.71 27.01 69.71 45.77 82.04 52.89 82.02 76.51 110.61 93.01 110.61 74.25"/><path class="cls-3" d="M82,52.89,69.71,45.77Z"/><path class="cls-4" d="M82,52.89,69.71,45.77Z"/></svg>